<svg id="Capa_1" enable-background="new 0 0 512 512" height="512" viewBox="0 0 512 512" width="512" xmlns="http://www.w3.org/2000/svg"><g><g><g><path d="m494.5 257.219c9.649 0 17.5-7.851 17.5-17.5v-11.797c0-9.649-7.851-17.5-17.5-17.5h-24.833v-26.428c1.929-2.294 3.096-5.25 3.096-8.475v-62.255c0-7.274-5.918-13.192-13.192-13.192h-62.255c-7.274 0-13.192 5.918-13.192 13.192v62.255c0 3.225 1.167 6.18 3.096 8.475v26.428h-32.515v-26.428c1.929-2.294 3.096-5.25 3.096-8.475v-62.255c0-7.274-5.918-13.192-13.192-13.192h-62.255c-7.274 0-13.192 5.918-13.192 13.192v62.255c0 3.225 1.167 6.18 3.096 8.475v26.428h-32.515v-21.849c0-4.142-3.358-7.5-7.5-7.5s-7.5 3.358-7.5 7.5v21.849h-52.448v-68.042h52.448v12.369c0 4.142 3.358 7.5 7.5 7.5s7.5-3.358 7.5-7.5v-53.768c1.929-2.294 3.096-5.25 3.096-8.475v-62.257c0-7.274-5.918-13.192-13.192-13.192h-62.257c-7.274 0-13.192 5.918-13.192 13.192v62.255c0 3.225 1.167 6.18 3.096 8.475v109.442h-32.515v-26.428c1.929-2.294 3.096-5.25 3.096-8.475v-62.255c0-7.274-5.918-13.192-13.192-13.192h-14.745c-4.142 0-7.5 3.358-7.5 7.5s3.358 7.5 7.5 7.5h12.937v58.64h-58.64v-58.64h11.879c4.142 0 7.5-3.358 7.5-7.5s-3.358-7.5-7.5-7.5h-13.687c-7.274 0-13.192 5.918-13.192 13.192v62.255c0 3.225 1.167 6.18 3.096 8.475v26.428h-24.831c-9.649 0-17.5 7.851-17.5 17.5v11.797c0 9.649 7.851 17.5 17.5 17.5h24.831v61.203h-24.831c-9.649 0-17.5 7.851-17.5 17.5v11.797c0 9.649 7.851 17.5 17.5 17.5h24.831v88.501c0 22.731 18.493 41.224 41.224 41.224s41.224-18.493 41.224-41.224v-88.501h32.515v5.486c0 22.731 18.493 41.224 41.224 41.224s41.224-18.493 41.224-41.224v-5.486h32.515v88.501c0 22.731 18.493 41.224 41.224 41.224s41.224-18.493 41.224-41.224v-88.501h32.515v88.501c0 22.731 18.493 41.224 41.224 41.224s41.224-18.493 41.224-41.224v-88.501h24.832c9.649 0 17.5-7.851 17.5-17.5v-11.797c0-9.649-7.851-17.5-17.5-17.5h-24.833v-61.203h24.833zm-322.206-129.84v-21.682h52.448v21.682zm-3.096-95.322h58.64v58.64h-58.64zm229.926 83.014h58.64v58.64h-58.64zm3.096 73.64h52.448v21.71h-52.448zm-118.059-73.64h58.64v58.64h-58.64zm3.096 73.64h52.448v21.71h-52.448zm-229.926 0h52.448v21.71h-52.448zm-42.331 51.008v-11.797c0-1.378 1.122-2.5 2.5-2.5h477c1.378 0 2.5 1.122 2.5 2.5v11.797c0 1.378-1.122 2.5-2.5 2.5h-477c-1.378 0-2.5-1.122-2.5-2.5zm339.708 78.702v-61.203h32.512v61.203zm-197.414-61.202v61.203h-32.515v-61.203zm15 0h167.414v61.203h-167.414zm-114.963 0h52.448v61.203h-52.448zm52.448 196.5c0 14.46-11.764 26.224-26.224 26.224s-26.224-11.764-26.224-26.224v-88.501h52.448zm114.963-83.014c0 14.46-11.764 26.224-26.224 26.224s-26.224-11.764-26.224-26.224v-5.486h52.448zm114.963 83.014c0 14.46-11.764 26.224-26.224 26.224s-26.224-11.764-26.224-26.224v-88.501h52.448zm114.962 0c0 14.46-11.764 26.224-26.224 26.224s-26.224-11.764-26.224-26.224v-88.501h52.448zm0-135.298h-7.293c-4.142 0-7.5 3.358-7.5 7.5s3.358 7.5 7.5 7.5h47.126c1.378 0 2.5 1.122 2.5 2.5v11.797c0 1.378-1.122 2.5-2.5 2.5h-477c-1.378 0-2.5-1.122-2.5-2.5v-11.797c0-1.378 1.122-2.5 2.5-2.5h396.05c4.142 0 7.5-3.358 7.5-7.5s-3.358-7.5-7.5-7.5h-11.33v-61.203h52.448v61.203z"/></g></g></g></svg>