<?xml version="1.0" encoding="iso-8859-1"?>
<!-- Generator: Adobe Illustrator 19.0.0, SVG Export Plug-In . SVG Version: 6.00 Build 0)  -->
<svg version="1.1" id="Capa_1" xmlns="http://www.w3.org/2000/svg" xmlns:xlink="http://www.w3.org/1999/xlink" x="0px" y="0px"
	 viewBox="0 0 480 480" style="enable-background:new 0 0 480 480;" xml:space="preserve">
<g>
	<g>
		<rect x="48" y="40" width="128" height="16"/>
	</g>
</g>
<g>
	<g>
		<rect x="48" y="8" width="128" height="16"/>
	</g>
</g>
<g>
	<g>
		<path d="M480,64V0h-64v16h35.2l-74.856,59.88l-7.8,85.864l-85.6,23.344l-84.28,130.256l-88.536-88.528L32,368.864V8
			c0-4.418-3.582-8-8-8H8C3.582,0,0,3.582,0,8s3.582,8,8,8h8v80H8c-4.418,0-8,3.582-8,8s3.582,8,8,8h8v72H8c-4.418,0-8,3.582-8,8
			s3.582,8,8,8h8v72H8c-4.418,0-8,3.582-8,8s3.582,8,8,8h8v72H8c-4.418,0-8,3.582-8,8s3.582,8,8,8h8v72H8c-4.418,0-8,3.582-8,8
			s3.582,8,8,8h8v8c0,4.418,3.582,8,8,8s8-3.582,8-8v-8h72v8c0,4.418,3.582,8,8,8s8-3.582,8-8v-8h72v8c0,4.418,3.582,8,8,8
			s8-3.582,8-8v-8h72v8c0,4.418,3.582,8,8,8s8-3.582,8-8v-8h72v8c0,4.418,3.582,8,8,8s8-3.582,8-8v-8h80v8c0,4.418,3.582,8,8,8
			s8-3.582,8-8v-40h-16v16h-80v-16h-16v16h-72v-16h-16v16h-72v-16h-16v16h-72v-16h-16v16H32v-45.952L112.328,256h4.36l80,80H192v16
			h16v-16h-3.648L280,219.088V224h16v-16h-8.8l5.88-9.088l74.92-20.44V192h16v-16h-6.92l6.4-1.744l8.2-90.136L464,26.248V64H480z"/>
	</g>
</g>
<g>
	<g>
		<rect x="48" y="72" width="96" height="16"/>
	</g>
</g>
<g>
	<g>
		<rect x="48" y="104" width="96" height="16"/>
	</g>
</g>
<g>
	<g>
		<rect x="104" y="400" width="16" height="16"/>
	</g>
</g>
<g>
	<g>
		<rect x="104" y="368" width="16" height="16"/>
	</g>
</g>
<g>
	<g>
		<rect x="104" y="336" width="16" height="16"/>
	</g>
</g>
<g>
	<g>
		<rect x="104" y="304" width="16" height="16"/>
	</g>
</g>
<g>
	<g>
		<rect x="104" y="272" width="16" height="16"/>
	</g>
</g>
<g>
	<g>
		<rect x="192" y="400" width="16" height="16"/>
	</g>
</g>
<g>
	<g>
		<rect x="192" y="368" width="16" height="16"/>
	</g>
</g>
<g>
	<g>
		<rect x="280" y="400" width="16" height="16"/>
	</g>
</g>
<g>
	<g>
		<rect x="280" y="368" width="16" height="16"/>
	</g>
</g>
<g>
	<g>
		<rect x="280" y="336" width="16" height="16"/>
	</g>
</g>
<g>
	<g>
		<rect x="280" y="304" width="16" height="16"/>
	</g>
</g>
<g>
	<g>
		<rect x="280" y="272" width="16" height="16"/>
	</g>
</g>
<g>
	<g>
		<rect x="280" y="240" width="16" height="16"/>
	</g>
</g>
<g>
	<g>
		<rect x="368" y="400" width="16" height="16"/>
	</g>
</g>
<g>
	<g>
		<rect x="368" y="368" width="16" height="16"/>
	</g>
</g>
<g>
	<g>
		<rect x="368" y="336" width="16" height="16"/>
	</g>
</g>
<g>
	<g>
		<rect x="368" y="304" width="16" height="16"/>
	</g>
</g>
<g>
	<g>
		<rect x="368" y="272" width="16" height="16"/>
	</g>
</g>
<g>
	<g>
		<rect x="368" y="240" width="16" height="16"/>
	</g>
</g>
<g>
	<g>
		<rect x="368" y="208" width="16" height="16"/>
	</g>
</g>
<g>
	<g>
		<rect x="464" y="400" width="16" height="16"/>
	</g>
</g>
<g>
	<g>
		<rect x="464" y="368" width="16" height="16"/>
	</g>
</g>
<g>
	<g>
		<rect x="464" y="336" width="16" height="16"/>
	</g>
</g>
<g>
	<g>
		<rect x="464" y="304" width="16" height="16"/>
	</g>
</g>
<g>
	<g>
		<rect x="464" y="272" width="16" height="16"/>
	</g>
</g>
<g>
	<g>
		<rect x="464" y="240" width="16" height="16"/>
	</g>
</g>
<g>
	<g>
		<rect x="464" y="208" width="16" height="16"/>
	</g>
</g>
<g>
	<g>
		<rect x="464" y="176" width="16" height="16"/>
	</g>
</g>
<g>
	<g>
		<rect x="464" y="144" width="16" height="16"/>
	</g>
</g>
<g>
	<g>
		<rect x="464" y="112" width="16" height="16"/>
	</g>
</g>
<g>
	<g>
		<rect x="464" y="80" width="16" height="16"/>
	</g>
</g>
<g>
</g>
<g>
</g>
<g>
</g>
<g>
</g>
<g>
</g>
<g>
</g>
<g>
</g>
<g>
</g>
<g>
</g>
<g>
</g>
<g>
</g>
<g>
</g>
<g>
</g>
<g>
</g>
<g>
</g>
</svg>
