<svg id="Camada_1" data-name="Camada 1" xmlns="http://www.w3.org/2000/svg" viewBox="0 0 1995.09 513"><defs><style>.cls-1,.cls-2{fill:#00e48b;}.cls-2{stroke:#fd00bc;stroke-miterlimit:10;stroke-width:80px;}.cls-3{font-size:212.93px;fill:#fff;font-family:StatsGroup-Bold, StatsBold;font-weight:700;letter-spacing:0.2em;}</style></defs><title>logooctopus</title><path class="cls-1" d="M724.72,1436.2A59.56,59.56,0,0,1,683.16,1419a13.66,13.66,0,0,1,19-19.61c9.64,9.35,22.53,12,34.47,7.14,9.41-3.84,19.61-13.39,20-28.67.12-13.65-7.1-24.89-19.31-30.07a31.67,31.67,0,0,0-35.11,6.76,13.65,13.65,0,1,1-19.19-19.43,58.88,58.88,0,0,1,65-12.48c22.45,9.53,36.23,30.84,36,55.62v.2a58.64,58.64,0,0,1-11.12,33.08A59.91,59.91,0,0,1,747,1431.79,58.74,58.74,0,0,1,724.72,1436.2Z" transform="translate(-270.37 -996.92)"/><path class="cls-1" d="M329.73,1438a59.94,59.94,0,0,1-23.4-4.78c-22.45-9.53-36.23-30.84-36-55.62v-.2a58.64,58.64,0,0,1,11.12-33.08A59.91,59.91,0,0,1,307.41,1324c21.95-9,46.4-4,63.8,12.82a13.66,13.66,0,0,1-19,19.61c-9.64-9.34-22.53-12-34.47-7.14-9.41,3.84-19.61,13.39-20,28.67-.12,13.65,7.1,24.89,19.31,30.07a31.67,31.67,0,0,0,35.11-6.76,13.65,13.65,0,0,1,19.19,19.43A58.5,58.5,0,0,1,329.73,1438Z" transform="translate(-270.37 -996.92)"/><path class="cls-2" d="M420.49,1139.47" transform="translate(-270.37 -996.92)"/><path class="cls-1" d="M693.47,1424.75a13.62,13.62,0,0,1-9.66-4L449.1,1186a13.66,13.66,0,0,1,19.31-19.32l234.71,234.71a13.67,13.67,0,0,1-9.65,23.32Z" transform="translate(-270.37 -996.92)"/><path class="cls-1" d="M458.76,1190a13.64,13.64,0,0,1-9.76-4.1,111.16,111.16,0,0,1,15.34-169.44c18.47-12.8,40.67-19.57,64.19-19.58h.24a111.24,111.24,0,0,1,108,129.74c-3.81,21.92-14.47,42.4-30.81,59.23a13.66,13.66,0,1,1-19.6-19c24.5-25.22,31.33-59.15,18.29-90.75-13-31.38-42.14-51.25-76.19-51.88-34.81.07-64.64,19.65-77.85,51.14s-6.39,66.62,17.94,91.45a13.66,13.66,0,0,1-9.75,23.22Z" transform="translate(-270.37 -996.92)"/><path class="cls-1" d="M361,1425.16a13.66,13.66,0,0,1-9.66-23.32l235.12-235.12A13.66,13.66,0,0,1,605.78,1186L370.65,1421.16A13.62,13.62,0,0,1,361,1425.16Z" transform="translate(-270.37 -996.92)"/><path class="cls-1" d="M691.4,1422.19a13.6,13.6,0,0,1-9.66-4L447,1183.48a13.66,13.66,0,0,1,19.32-19.31l234.71,234.71a13.66,13.66,0,0,1-9.66,23.31Z" transform="translate(-270.37 -996.92)"/><path class="cls-1" d="M560,1153.16A13.65,13.65,0,0,1,550.2,1130c9.35-9.65,12-22.53,7.14-34.47-3.84-9.41-13.39-19.61-28.67-20-13.64-.14-24.89,7.1-30.07,19.31a31.68,31.68,0,0,0,6.77,35.11,13.66,13.66,0,0,1-19.44,19.19,58.9,58.9,0,0,1-12.47-65c9.52-22.45,30.83-36.24,55.61-36h.2a58.61,58.61,0,0,1,33.08,11.12,59.91,59.91,0,0,1,20.28,25.91c9,22,4,46.4-12.82,63.8A13.61,13.61,0,0,1,560,1153.16Z" transform="translate(-270.37 -996.92)"/><path class="cls-1" d="M387.62,1307.74a59.81,59.81,0,0,1-23.4-4.79c-22.44-9.52-36.22-30.83-36-55.61v-.2a58.66,58.66,0,0,1,11.12-33.08,60,60,0,0,1,25.91-20.29c21.95-9,46.4-4,63.81,12.83a13.66,13.66,0,1,1-19,19.61c-9.64-9.35-22.52-12-34.46-7.15-9.42,3.85-19.61,13.4-20.05,28.68-.11,13.65,7.1,24.88,19.31,30.07A31.68,31.68,0,0,0,410,1271a13.66,13.66,0,1,1,19.2,19.44,59.1,59.1,0,0,1-31.8,16.44A58.42,58.42,0,0,1,387.62,1307.74Z" transform="translate(-270.37 -996.92)"/><path class="cls-1" d="M418.89,1294.92a13.66,13.66,0,0,1-9.66-23.31L551.34,1129.5a13.66,13.66,0,1,1,19.32,19.31L428.55,1290.92A13.6,13.6,0,0,1,418.89,1294.92Z" transform="translate(-270.37 -996.92)"/><path class="cls-1" d="M668,1307.54a58.5,58.5,0,0,1-41.57-17.26,13.65,13.65,0,1,1,19.19-19.43,31.67,31.67,0,0,0,35.11,6.76c12.21-5.18,19.43-16.42,19.31-30.07-.43-15.28-10.63-24.83-20-28.67-11.94-4.88-24.83-2.21-34.47,7.14a13.66,13.66,0,1,1-19-19.61c17.4-16.87,41.85-21.78,63.8-12.82a59.91,59.91,0,0,1,25.91,20.28,58.64,58.64,0,0,1,11.12,33.08v.2c.27,24.78-13.51,46.09-36,55.62A59.94,59.94,0,0,1,668,1307.54Z" transform="translate(-270.37 -996.92)"/><path class="cls-1" d="M636.77,1294.73a13.62,13.62,0,0,1-9.65-4L485,1148.62a13.66,13.66,0,0,1,19.32-19.32l142.11,142.11a13.66,13.66,0,0,1-9.66,23.32Z" transform="translate(-270.37 -996.92)"/><path class="cls-1" d="M597.32,1509.88a59.21,59.21,0,0,1-59.46-59.15A13.65,13.65,0,0,1,551.43,1437h.09a13.66,13.66,0,0,1,13.66,13.56,31.65,31.65,0,0,0,20.19,29.68c12.4,4.93,25.47,2,35-7.91,10.33-11.17,9.78-25.07,5.81-34.36-5-11.81-16-19-29.34-19.17a13.66,13.66,0,0,1,.19-27.31h.21c24.08.35,44.8,14,54.06,35.75a59.87,59.87,0,0,1,4.19,32.5A58.67,58.67,0,0,1,640.29,1491l-.14.15C628.4,1503.41,613.09,1509.88,597.32,1509.88Zm33-28.19h0Z" transform="translate(-270.37 -996.92)"/><path class="cls-1" d="M551.69,1464.93A13.66,13.66,0,0,1,538,1451.27V1270.53a13.66,13.66,0,1,1,27.31,0v180.74A13.66,13.66,0,0,1,551.69,1464.93Z" transform="translate(-270.37 -996.92)"/><path class="cls-1" d="M457.65,1509.92c-15.77,0-31.08-6.48-42.83-18.75l-.14-.15a58.67,58.67,0,0,1-15.19-31.27,59.92,59.92,0,0,1,4.19-32.49c9.26-21.7,30-35.4,54.06-35.76H458a13.66,13.66,0,0,1,.19,27.32c-13.33.19-24.3,7.36-29.34,19.16-4,9.3-4.52,23.2,5.81,34.37,9.52,9.88,22.59,12.83,35,7.9a31.65,31.65,0,0,0,20.19-29.68A13.66,13.66,0,0,1,503.45,1437h.1a13.66,13.66,0,0,1,13.56,13.75,59.63,59.63,0,0,1-59.46,59.16Z" transform="translate(-270.37 -996.92)"/><path class="cls-1" d="M503.43,1465.38a13.65,13.65,0,0,1-13.66-13.65v-181.2a13.66,13.66,0,1,1,27.31,0v181.2A13.65,13.65,0,0,1,503.43,1465.38Z" transform="translate(-270.37 -996.92)"/><text class="cls-3" transform="translate(625.28 364.22)">OCTOPUS</text></svg>